<?xml version="1.0" encoding="UTF-8" standalone="no"?>
<!DOCTYPE svg PUBLIC "-//W3C//DTD SVG 1.1//EN" "http://www.w3.org/Graphics/SVG/1.1/DTD/svg11.dtd">
<svg width="100%" height="100%" viewBox="0 0 512 512" version="1.1" xmlns="http://www.w3.org/2000/svg" xmlns:xlink="http://www.w3.org/1999/xlink" xml:space="preserve" xmlns:serif="http://www.serif.com/" style="fill-rule:evenodd;clip-rule:evenodd;stroke-linejoin:round;stroke-miterlimit:2;">
    <g id="box" transform="matrix(-1.40909,0,0,1.40909,418.75,54.5)">
        <g id="box-simplified" serif:id="box simplified">
            <g id="side" transform="matrix(0.795455,0,0,1,-99.4318,-91)">
                <path d="M213,91L125,131L125,337L213,377L213,91Z" style="fill:white;"/>
            </g>
            <g id="front-chessbox-cutout" serif:id="front chessbox cutout" transform="matrix(-0.709677,0,0,0.709677,297.177,-38.6774)">
                <path d="M93.25,110.864L300,54.5L300,457.5L93.25,387.045L93.25,110.864ZM282.774,265.275L251.51,336.115L282.71,419.068L268.261,414.313L244.684,348.289L222.892,399.395L212.411,395.949L238.543,334.807L212.978,264.806L224.09,264.882L245.179,322.599L269.059,265.181L282.774,265.275ZM196.061,279.15C193.491,273.605 190.403,269.376 186.824,266.447C183.339,263.518 179.476,262.074 175.258,262.074C171.291,262.074 167.694,263.431 164.449,266.114C161.286,268.749 158.676,272.52 156.597,277.423C154.45,282.517 152.833,288.636 151.733,295.799C150.64,302.866 150.096,310.905 150.096,319.957C150.096,329.157 150.64,337.457 151.733,344.891C152.856,352.378 154.461,358.913 156.562,364.51C158.688,370.176 161.298,374.851 164.412,378.532C167.607,382.286 171.214,384.856 175.258,386.212C179.503,387.634 183.35,387.535 186.782,385.869C190.304,384.179 193.404,380.91 196.061,376.03C198.665,371.287 200.706,364.953 202.168,357.035C203.673,349.007 204.429,339.671 204.429,329.081C204.429,318.487 203.688,308.929 202.214,300.455C200.781,292.046 198.722,284.94 196.061,279.15ZM195.278,327.543C195.278,344.022 193.377,356.188 189.628,363.928C185.981,371.472 181.173,374.292 175.3,372.538C169.604,370.837 165.187,365.493 161.963,356.596C158.795,347.801 157.232,336.028 157.232,321.155C157.232,306.434 158.759,295.235 161.854,287.45C165.027,279.479 169.477,275.544 175.3,275.76C181.256,275.979 186.09,280.499 189.715,289.434C193.404,298.486 195.278,311.23 195.278,327.543ZM143.57,339.792C143.57,332.229 142.626,325.804 140.752,320.566C138.899,315.335 136.398,311.76 133.277,309.824L133.277,309.257C135.13,307.383 136.627,304.745 137.759,301.343C138.899,297.87 139.472,293.569 139.472,288.459C139.472,283.931 139.079,280.027 138.297,276.769C137.518,273.477 136.273,270.782 134.572,268.696C133.052,266.87 131.475,265.672 129.843,265.09C128.228,264.515 125.825,264.221 122.669,264.202L110.476,264.119L110.476,362.424L125.19,367.266C128.237,368.267 130.788,368.449 132.817,367.787C134.892,367.126 136.815,365.493 138.582,362.87C140.09,360.67 141.299,357.635 142.204,353.765C143.114,349.869 143.57,345.208 143.57,339.792ZM136.972,338.851C136.972,342.631 136.701,345.647 136.158,347.896C135.617,350.137 134.768,352.027 133.615,353.557C132.531,354.952 131.151,355.738 129.483,355.912C127.831,356.04 125.737,355.731 123.216,354.994L115.832,352.835L115.832,315.615L124.636,317.134C126.55,317.463 128.188,317.932 129.543,318.54C130.929,319.111 132.114,320.075 133.093,321.428C134.551,323.45 135.565,325.782 136.127,328.42C136.69,331.065 136.972,334.543 136.972,338.851ZM133.031,289.795C133.031,292.867 132.827,295.516 132.42,297.741C132.033,299.911 131.364,301.646 130.416,302.938C129.473,304.219 128.456,305.021 127.367,305.342C126.285,305.614 124.84,305.625 123.043,305.38L115.832,304.397L115.832,275.506L122.468,275.794C124.374,275.877 125.991,276.111 127.307,276.493C128.635,276.833 129.773,277.657 130.718,278.968C131.526,280.091 132.114,281.538 132.48,283.307C132.848,285.08 133.031,287.241 133.031,289.795ZM133.031,289.797L133.031,289.793L133.031,289.797ZM123.179,239.782C121.276,239.782 119.534,238.652 117.947,236.407C116.383,234.181 115.048,230.87 113.936,226.49C112.83,222.132 111.975,216.704 111.367,210.196C110.772,203.707 110.476,196.193 110.476,187.636C110.476,179.669 110.762,172.389 111.335,165.79C111.91,159.169 112.748,153.397 113.853,148.469C114.921,143.703 116.25,139.874 117.846,136.983C119.466,134.065 121.248,132.33 123.196,131.794C124.281,131.495 125.262,131.484 126.137,131.76C127.028,131.986 127.851,132.398 128.607,132.995C129.402,133.68 130.122,134.507 130.767,135.475C131.426,136.397 132.003,137.27 132.497,138.098L132.497,163.893L131.703,164.044C131.366,162.967 130.941,161.697 130.427,160.231C129.925,158.768 129.354,157.351 128.714,155.971C128.064,154.599 127.363,153.48 126.611,152.611C125.863,151.746 125.065,151.409 124.218,151.598C123.282,151.81 122.397,152.611 121.562,154.002C120.73,155.34 119.964,157.445 119.263,160.31C118.598,163.065 118.058,166.641 117.644,171.033C117.241,175.413 117.041,180.667 117.041,186.805C117.041,193.218 117.258,198.555 117.694,202.822C118.143,207.097 118.705,210.453 119.381,212.891C120.071,215.382 120.844,217.162 121.699,218.224C122.558,219.244 123.409,219.736 124.252,219.694C125.065,219.652 125.868,219.12 126.664,218.092C127.474,217.06 128.223,215.673 128.909,213.93C129.491,212.524 130.033,211.016 130.534,209.417C131.037,207.811 131.45,206.424 131.775,205.256L132.497,205.196L132.497,230.636C131.823,231.838 131.18,232.968 130.57,234.018C129.961,235.069 129.324,235.976 128.66,236.736C127.798,237.734 126.992,238.49 126.242,239.007C125.495,239.521 124.473,239.778 123.179,239.778L123.179,239.782ZM237.171,195.021C237.171,185.777 236.388,178.365 234.827,172.82C233.293,167.242 230.923,163.05 227.748,160.235C226.146,158.847 224.657,157.804 223.273,157.097C221.916,156.395 220.507,155.676 219.04,154.943C216.822,153.828 215.325,152.456 214.539,150.82C213.753,149.13 213.36,146.602 213.36,143.227C213.36,140.993 213.602,138.971 214.093,137.149C214.58,135.267 215.166,133.819 215.854,132.806C216.629,131.597 217.434,130.728 218.265,130.195C219.12,129.598 219.978,129.201 220.839,129.004C223.292,128.452 225.715,129.341 228.107,131.699C230.541,134.012 232.613,137.145 234.313,141.095L235.481,140.868L235.481,110.08C233.489,108.028 231.15,106.535 228.466,105.598C225.836,104.604 223.19,104.479 220.541,105.205C215.344,106.633 211.167,111.539 207.962,119.862C204.818,128.014 203.261,137.879 203.261,149.531C203.261,158.212 203.945,165.39 205.321,171.082C206.723,176.747 209.028,181.12 212.264,184.204C213.688,185.588 215.219,186.706 216.859,187.564C218.522,188.369 220.11,189.276 221.622,190.286C223.065,191.249 224.165,192.75 224.91,194.787C225.677,196.771 226.063,199.205 226.063,202.081C226.063,205.192 225.798,207.558 225.265,209.176C224.755,210.789 224.101,212.146 223.3,213.239C222.65,214.093 221.811,214.716 220.783,215.117C219.762,215.518 218.942,215.733 218.318,215.763C215.915,215.88 213.428,214.543 210.865,211.776C208.344,209.036 206.088,205.063 204.088,199.882L203.034,199.969L203.034,229.955C205.045,232.722 207.214,235.035 209.55,236.887C211.927,238.697 214.739,239.608 218.001,239.608C223.746,239.605 228.383,235.564 231.853,227.393C235.387,219.052 237.171,208.231 237.171,195.021ZM282.774,190.994C282.774,180.914 281.841,172.85 279.989,166.822C278.167,160.771 275.359,156.236 271.595,153.223C269.701,151.738 267.936,150.623 266.303,149.879C264.701,149.134 263.03,148.378 261.303,147.603C258.684,146.432 256.919,144.965 255.989,143.204C255.063,141.382 254.602,138.646 254.602,134.98C254.602,132.557 254.889,130.357 255.464,128.369C256.042,126.317 256.733,124.733 257.542,123.618C258.457,122.292 259.406,121.328 260.388,120.731C261.397,120.066 262.407,119.616 263.423,119.385C266.322,118.732 269.191,119.65 272.022,122.16C274.905,124.631 277.362,127.999 279.38,132.27L280.767,131.998L280.767,98.451C278.402,96.266 275.627,94.701 272.449,93.749C269.331,92.736 266.205,92.668 263.076,93.53C256.941,95.212 252.02,100.643 248.248,109.748C244.552,118.652 242.723,129.375 242.723,141.998C242.723,151.406 243.528,159.169 245.145,165.318C246.793,171.445 249.503,176.158 253.313,179.472C254.991,180.958 256.794,182.156 258.725,183.07C260.691,183.928 262.565,184.9 264.349,185.981C266.058,187.012 267.354,188.634 268.238,190.845C269.145,192.995 269.603,195.637 269.603,198.771C269.603,202.153 269.289,204.731 268.662,206.492C268.057,208.25 267.278,209.727 266.333,210.922C265.562,211.852 264.572,212.536 263.359,212.978C262.153,213.416 261.186,213.654 260.449,213.688C257.614,213.828 254.685,212.388 251.665,209.399C248.702,206.439 246.049,202.149 243.698,196.544L242.462,196.646L242.462,229.135C244.82,232.132 247.372,234.635 250.119,236.641C252.916,238.603 256.227,239.593 260.075,239.593C266.859,239.589 272.35,235.19 276.459,226.293C280.654,217.192 282.774,205.392 282.774,190.994ZM164.067,237.545L156.13,237.586L156.13,187.957L144.926,189.322L144.926,237.643L137.668,237.681L137.668,129.915L144.926,127.957L144.926,168.103L156.13,166.168L156.13,124.934L164.067,122.795L164.067,237.545ZM197.081,237.375L172.219,237.503L172.219,120.595L197.081,113.886L197.081,137.773L180.727,141.344L180.727,161.913L195.868,159.297L195.868,183.12L180.727,184.96L180.727,214.41L197.081,213.492L197.081,237.375ZM282.774,190.992L282.774,190.996L282.774,190.992Z" style="fill:white;"/>
            </g>
        </g>
    </g>
</svg>
